<mxfile host="app.diagrams.net" agent="Mozilla/5.0 (Macintosh; Intel Mac OS X 10_15_7) AppleWebKit/537.36 (KHTML, like Gecko) Chrome/131.0.0.0 Safari/537.36" version="25.0.3">
  <diagram id="rMZSb4SJuJLCTUBqvR8x" name="Page-1">
    <mxGraphModel dx="1829" dy="1698" grid="1" gridSize="10" guides="1" tooltips="1" connect="1" arrows="1" fold="1" page="1" pageScale="1" pageWidth="850" pageHeight="1100" math="0" shadow="0">
      <root>
        <mxCell id="0" />
        <mxCell id="1" parent="0" />
        <mxCell id="caSDgCl3acmiZdjkLDBD-2" value="Display" style="swimlane;fontStyle=0;childLayout=stackLayout;horizontal=1;startSize=26;fillColor=none;horizontalStack=0;resizeParent=1;resizeParentMax=0;resizeLast=0;collapsible=1;marginBottom=0;whiteSpace=wrap;html=1;fontSize=16;strokeWidth=2;" parent="1" vertex="1">
          <mxGeometry x="570" y="130" width="180" height="100" as="geometry">
            <mxRectangle x="350" y="340" width="80" height="30" as="alternateBounds" />
          </mxGeometry>
        </mxCell>
        <mxCell id="caSDgCl3acmiZdjkLDBD-3" value="+ int floor;&lt;span style=&quot;white-space: pre;&quot;&gt;&#x9;&lt;/span&gt;" style="text;strokeColor=none;fillColor=none;align=left;verticalAlign=top;spacingLeft=4;spacingRight=4;overflow=hidden;rotatable=0;points=[[0,0.5],[1,0.5]];portConstraint=eastwest;whiteSpace=wrap;html=1;fontSize=16;strokeWidth=2;" parent="caSDgCl3acmiZdjkLDBD-2" vertex="1">
          <mxGeometry y="26" width="180" height="34" as="geometry" />
        </mxCell>
        <mxCell id="caSDgCl3acmiZdjkLDBD-4" value="+ Direction dir;" style="text;strokeColor=none;fillColor=none;align=left;verticalAlign=top;spacingLeft=4;spacingRight=4;overflow=hidden;rotatable=0;points=[[0,0.5],[1,0.5]];portConstraint=eastwest;whiteSpace=wrap;html=1;fontSize=16;strokeWidth=2;" parent="caSDgCl3acmiZdjkLDBD-2" vertex="1">
          <mxGeometry y="60" width="180" height="40" as="geometry" />
        </mxCell>
        <mxCell id="caSDgCl3acmiZdjkLDBD-9" value="Elevator" style="swimlane;fontStyle=1;align=center;verticalAlign=top;childLayout=stackLayout;horizontal=1;startSize=30;horizontalStack=0;resizeParent=1;resizeParentMax=0;resizeLast=0;collapsible=1;marginBottom=0;whiteSpace=wrap;html=1;fontSize=16;fillColor=none;" parent="1" vertex="1">
          <mxGeometry x="440" y="270" width="330" height="318" as="geometry" />
        </mxCell>
        <mxCell id="caSDgCl3acmiZdjkLDBD-10" value="&lt;div&gt;+ int id;&lt;/div&gt;&lt;div&gt;&lt;br&gt;&lt;/div&gt;&lt;div&gt;+ Display display;&lt;/div&gt;&lt;div&gt;&lt;br&gt;&lt;/div&gt;&lt;div&gt;+ int currentFloor;&lt;/div&gt;&lt;div&gt;&lt;br&gt;&lt;/div&gt;&lt;div&gt;+ Direction dir;&lt;/div&gt;&lt;div&gt;&lt;br&gt;&lt;/div&gt;&lt;div&gt;+ Status status;&lt;/div&gt;&lt;div&gt;&lt;br&gt;&lt;/div&gt;&lt;div&gt;+ InternalButton obj;&lt;/div&gt;" style="text;strokeColor=none;fillColor=none;align=left;verticalAlign=top;spacingLeft=4;spacingRight=4;overflow=hidden;rotatable=0;points=[[0,0.5],[1,0.5]];portConstraint=eastwest;whiteSpace=wrap;html=1;fontSize=16;" parent="caSDgCl3acmiZdjkLDBD-9" vertex="1">
          <mxGeometry y="30" width="330" height="220" as="geometry" />
        </mxCell>
        <mxCell id="caSDgCl3acmiZdjkLDBD-11" value="" style="line;strokeWidth=1;fillColor=none;align=left;verticalAlign=middle;spacingTop=-1;spacingLeft=3;spacingRight=3;rotatable=0;labelPosition=right;points=[];portConstraint=eastwest;strokeColor=inherit;fontSize=16;" parent="caSDgCl3acmiZdjkLDBD-9" vertex="1">
          <mxGeometry y="250" width="330" height="8" as="geometry" />
        </mxCell>
        <mxCell id="caSDgCl3acmiZdjkLDBD-12" value="+ move(int destinationFloor, Direction dir);" style="text;strokeColor=none;fillColor=none;align=left;verticalAlign=top;spacingLeft=4;spacingRight=4;overflow=hidden;rotatable=0;points=[[0,0.5],[1,0.5]];portConstraint=eastwest;whiteSpace=wrap;html=1;fontSize=16;" parent="caSDgCl3acmiZdjkLDBD-9" vertex="1">
          <mxGeometry y="258" width="330" height="60" as="geometry" />
        </mxCell>
        <mxCell id="caSDgCl3acmiZdjkLDBD-13" style="edgeStyle=orthogonalEdgeStyle;rounded=0;orthogonalLoop=1;jettySize=auto;html=1;entryX=1;entryY=0.5;entryDx=0;entryDy=0;fontSize=16;" parent="1" source="caSDgCl3acmiZdjkLDBD-10" target="caSDgCl3acmiZdjkLDBD-3" edge="1">
          <mxGeometry relative="1" as="geometry" />
        </mxCell>
        <mxCell id="caSDgCl3acmiZdjkLDBD-30" style="edgeStyle=orthogonalEdgeStyle;rounded=0;orthogonalLoop=1;jettySize=auto;html=1;entryX=0.5;entryY=0;entryDx=0;entryDy=0;fontSize=16;" parent="1" source="caSDgCl3acmiZdjkLDBD-14" target="caSDgCl3acmiZdjkLDBD-26" edge="1">
          <mxGeometry relative="1" as="geometry" />
        </mxCell>
        <mxCell id="caSDgCl3acmiZdjkLDBD-14" value="InternalButton" style="swimlane;fontStyle=1;align=center;verticalAlign=top;childLayout=stackLayout;horizontal=1;startSize=26;horizontalStack=0;resizeParent=1;resizeParentMax=0;resizeLast=0;collapsible=1;marginBottom=0;whiteSpace=wrap;html=1;fontSize=16;fillColor=none;" parent="1" vertex="1">
          <mxGeometry x="130" y="111" width="240" height="138" as="geometry" />
        </mxCell>
        <mxCell id="caSDgCl3acmiZdjkLDBD-15" value="&lt;div&gt;+ InternalButtonDispatch obj;&lt;br&gt;&lt;/div&gt;" style="text;strokeColor=none;fillColor=none;align=left;verticalAlign=top;spacingLeft=4;spacingRight=4;overflow=hidden;rotatable=0;points=[[0,0.5],[1,0.5]];portConstraint=eastwest;whiteSpace=wrap;html=1;fontSize=16;" parent="caSDgCl3acmiZdjkLDBD-14" vertex="1">
          <mxGeometry y="26" width="240" height="44" as="geometry" />
        </mxCell>
        <mxCell id="caSDgCl3acmiZdjkLDBD-16" value="" style="line;strokeWidth=1;fillColor=none;align=left;verticalAlign=middle;spacingTop=-1;spacingLeft=3;spacingRight=3;rotatable=0;labelPosition=right;points=[];portConstraint=eastwest;strokeColor=inherit;fontSize=16;" parent="caSDgCl3acmiZdjkLDBD-14" vertex="1">
          <mxGeometry y="70" width="240" height="8" as="geometry" />
        </mxCell>
        <mxCell id="caSDgCl3acmiZdjkLDBD-17" value="+ pressButton(int button);" style="text;strokeColor=none;fillColor=none;align=left;verticalAlign=top;spacingLeft=4;spacingRight=4;overflow=hidden;rotatable=0;points=[[0,0.5],[1,0.5]];portConstraint=eastwest;whiteSpace=wrap;html=1;fontSize=16;" parent="caSDgCl3acmiZdjkLDBD-14" vertex="1">
          <mxGeometry y="78" width="240" height="60" as="geometry" />
        </mxCell>
        <mxCell id="caSDgCl3acmiZdjkLDBD-18" style="edgeStyle=orthogonalEdgeStyle;rounded=0;orthogonalLoop=1;jettySize=auto;html=1;entryX=1;entryY=0.5;entryDx=0;entryDy=0;fontSize=16;" parent="1" source="caSDgCl3acmiZdjkLDBD-10" target="caSDgCl3acmiZdjkLDBD-14" edge="1">
          <mxGeometry relative="1" as="geometry" />
        </mxCell>
        <mxCell id="caSDgCl3acmiZdjkLDBD-19" value="&lt;div&gt;ElevatorController&lt;/div&gt;" style="swimlane;fontStyle=1;align=center;verticalAlign=top;childLayout=stackLayout;horizontal=1;startSize=30;horizontalStack=0;resizeParent=1;resizeParentMax=0;resizeLast=0;collapsible=1;marginBottom=0;whiteSpace=wrap;html=1;fontSize=16;fillColor=none;" parent="1" vertex="1">
          <mxGeometry x="130" y="400" width="240" height="270" as="geometry" />
        </mxCell>
        <mxCell id="caSDgCl3acmiZdjkLDBD-20" value="&lt;div&gt;+ Elevator obj;&lt;/div&gt;&lt;div&gt;&lt;br&gt;&lt;/div&gt;&lt;div&gt;+ PriorityQueue (Max Heap)&lt;/div&gt;&lt;div&gt;&lt;br&gt;&lt;/div&gt;&lt;div&gt;+ PriorityQueue (Min Heap)&lt;/div&gt;&lt;div&gt;&lt;br&gt;&lt;/div&gt;&lt;div&gt;+ Queue&lt;/div&gt;" style="text;strokeColor=none;fillColor=none;align=left;verticalAlign=top;spacingLeft=4;spacingRight=4;overflow=hidden;rotatable=0;points=[[0,0.5],[1,0.5]];portConstraint=eastwest;whiteSpace=wrap;html=1;fontSize=16;" parent="caSDgCl3acmiZdjkLDBD-19" vertex="1">
          <mxGeometry y="30" width="240" height="160" as="geometry" />
        </mxCell>
        <mxCell id="caSDgCl3acmiZdjkLDBD-21" value="" style="line;strokeWidth=1;fillColor=none;align=left;verticalAlign=middle;spacingTop=-1;spacingLeft=3;spacingRight=3;rotatable=0;labelPosition=right;points=[];portConstraint=eastwest;strokeColor=inherit;fontSize=16;" parent="caSDgCl3acmiZdjkLDBD-19" vertex="1">
          <mxGeometry y="190" width="240" height="8" as="geometry" />
        </mxCell>
        <mxCell id="caSDgCl3acmiZdjkLDBD-22" value="&lt;div&gt;+ acceptNewRequest();&lt;/div&gt;&lt;div&gt;&lt;br&gt;&lt;/div&gt;&lt;div&gt;+ controlElevator();&lt;/div&gt;" style="text;strokeColor=none;fillColor=none;align=left;verticalAlign=top;spacingLeft=4;spacingRight=4;overflow=hidden;rotatable=0;points=[[0,0.5],[1,0.5]];portConstraint=eastwest;whiteSpace=wrap;html=1;fontSize=16;" parent="caSDgCl3acmiZdjkLDBD-19" vertex="1">
          <mxGeometry y="198" width="240" height="72" as="geometry" />
        </mxCell>
        <mxCell id="caSDgCl3acmiZdjkLDBD-25" style="edgeStyle=orthogonalEdgeStyle;rounded=0;orthogonalLoop=1;jettySize=auto;html=1;entryX=1;entryY=0.5;entryDx=0;entryDy=0;exitX=-0.003;exitY=0.033;exitDx=0;exitDy=0;exitPerimeter=0;fontSize=16;" parent="1" source="caSDgCl3acmiZdjkLDBD-12" target="caSDgCl3acmiZdjkLDBD-20" edge="1">
          <mxGeometry relative="1" as="geometry" />
        </mxCell>
        <mxCell id="caSDgCl3acmiZdjkLDBD-26" value="InternalButtonDispatcher" style="swimlane;fontStyle=1;align=center;verticalAlign=top;childLayout=stackLayout;horizontal=1;startSize=26;horizontalStack=0;resizeParent=1;resizeParentMax=0;resizeLast=0;collapsible=1;marginBottom=0;whiteSpace=wrap;html=1;fontSize=16;fillColor=none;" parent="1" vertex="1">
          <mxGeometry x="-320" y="249" width="240" height="138" as="geometry">
            <mxRectangle x="-320" y="249" width="220" height="30" as="alternateBounds" />
          </mxGeometry>
        </mxCell>
        <mxCell id="caSDgCl3acmiZdjkLDBD-27" value="&lt;div&gt;+ List&amp;lt;ElevatorController&amp;gt; list;&lt;br&gt;&lt;/div&gt;" style="text;strokeColor=none;fillColor=none;align=left;verticalAlign=top;spacingLeft=4;spacingRight=4;overflow=hidden;rotatable=0;points=[[0,0.5],[1,0.5]];portConstraint=eastwest;whiteSpace=wrap;html=1;fontSize=16;" parent="caSDgCl3acmiZdjkLDBD-26" vertex="1">
          <mxGeometry y="26" width="240" height="44" as="geometry" />
        </mxCell>
        <mxCell id="caSDgCl3acmiZdjkLDBD-28" value="" style="line;strokeWidth=1;fillColor=none;align=left;verticalAlign=middle;spacingTop=-1;spacingLeft=3;spacingRight=3;rotatable=0;labelPosition=right;points=[];portConstraint=eastwest;strokeColor=inherit;fontSize=16;" parent="caSDgCl3acmiZdjkLDBD-26" vertex="1">
          <mxGeometry y="70" width="240" height="8" as="geometry" />
        </mxCell>
        <mxCell id="caSDgCl3acmiZdjkLDBD-29" value="+ submitRequest();" style="text;strokeColor=none;fillColor=none;align=left;verticalAlign=top;spacingLeft=4;spacingRight=4;overflow=hidden;rotatable=0;points=[[0,0.5],[1,0.5]];portConstraint=eastwest;whiteSpace=wrap;html=1;fontSize=16;" parent="caSDgCl3acmiZdjkLDBD-26" vertex="1">
          <mxGeometry y="78" width="240" height="60" as="geometry" />
        </mxCell>
        <mxCell id="caSDgCl3acmiZdjkLDBD-31" style="edgeStyle=orthogonalEdgeStyle;rounded=0;orthogonalLoop=1;jettySize=auto;html=1;entryX=0;entryY=0.5;entryDx=0;entryDy=0;fontSize=16;" parent="1" source="caSDgCl3acmiZdjkLDBD-29" target="caSDgCl3acmiZdjkLDBD-20" edge="1">
          <mxGeometry relative="1" as="geometry" />
        </mxCell>
        <mxCell id="caSDgCl3acmiZdjkLDBD-32" value="will call acceptNewRequest()" style="edgeLabel;html=1;align=center;verticalAlign=middle;resizable=0;points=[];fontSize=16;" parent="caSDgCl3acmiZdjkLDBD-31" vertex="1" connectable="0">
          <mxGeometry x="-0.2551" y="-4" relative="1" as="geometry">
            <mxPoint x="27" y="-12" as="offset" />
          </mxGeometry>
        </mxCell>
        <mxCell id="caSDgCl3acmiZdjkLDBD-33" value="ExternalButtonDispatcher" style="swimlane;fontStyle=1;align=center;verticalAlign=top;childLayout=stackLayout;horizontal=1;startSize=26;horizontalStack=0;resizeParent=1;resizeParentMax=0;resizeLast=0;collapsible=1;marginBottom=0;whiteSpace=wrap;html=1;fontSize=16;fillColor=none;" parent="1" vertex="1">
          <mxGeometry x="-620" y="411" width="300" height="138" as="geometry" />
        </mxCell>
        <mxCell id="caSDgCl3acmiZdjkLDBD-34" value="&lt;div&gt;+ List&amp;lt;ElevatorController&amp;gt; list;&lt;br&gt;&lt;/div&gt;" style="text;strokeColor=none;fillColor=none;align=left;verticalAlign=top;spacingLeft=4;spacingRight=4;overflow=hidden;rotatable=0;points=[[0,0.5],[1,0.5]];portConstraint=eastwest;whiteSpace=wrap;html=1;fontSize=16;" parent="caSDgCl3acmiZdjkLDBD-33" vertex="1">
          <mxGeometry y="26" width="300" height="44" as="geometry" />
        </mxCell>
        <mxCell id="caSDgCl3acmiZdjkLDBD-35" value="" style="line;strokeWidth=1;fillColor=none;align=left;verticalAlign=middle;spacingTop=-1;spacingLeft=3;spacingRight=3;rotatable=0;labelPosition=right;points=[];portConstraint=eastwest;strokeColor=inherit;fontSize=16;" parent="caSDgCl3acmiZdjkLDBD-33" vertex="1">
          <mxGeometry y="70" width="300" height="8" as="geometry" />
        </mxCell>
        <mxCell id="caSDgCl3acmiZdjkLDBD-36" value="+ submitRequest(int floor, Direction dir);" style="text;strokeColor=none;fillColor=none;align=left;verticalAlign=top;spacingLeft=4;spacingRight=4;overflow=hidden;rotatable=0;points=[[0,0.5],[1,0.5]];portConstraint=eastwest;whiteSpace=wrap;html=1;fontSize=16;" parent="caSDgCl3acmiZdjkLDBD-33" vertex="1">
          <mxGeometry y="78" width="300" height="60" as="geometry" />
        </mxCell>
        <mxCell id="caSDgCl3acmiZdjkLDBD-38" value="Odd Even Algo" style="html=1;whiteSpace=wrap;fillColor=none;fontSize=16;" parent="1" vertex="1">
          <mxGeometry x="-720" y="680" width="110" height="50" as="geometry" />
        </mxCell>
        <mxCell id="caSDgCl3acmiZdjkLDBD-39" value="Fixed Floor Algo" style="html=1;whiteSpace=wrap;fillColor=none;fontSize=16;" parent="1" vertex="1">
          <mxGeometry x="-530" y="680" width="110" height="50" as="geometry" />
        </mxCell>
        <mxCell id="caSDgCl3acmiZdjkLDBD-40" value="Minimum Seek Time Algo" style="html=1;whiteSpace=wrap;fillColor=none;fontSize=16;" parent="1" vertex="1">
          <mxGeometry x="-320" y="680" width="110" height="50" as="geometry" />
        </mxCell>
        <mxCell id="caSDgCl3acmiZdjkLDBD-42" style="edgeStyle=orthogonalEdgeStyle;rounded=0;orthogonalLoop=1;jettySize=auto;html=1;entryX=0.183;entryY=1;entryDx=0;entryDy=0;entryPerimeter=0;fontSize=16;" parent="1" source="caSDgCl3acmiZdjkLDBD-38" target="caSDgCl3acmiZdjkLDBD-36" edge="1">
          <mxGeometry relative="1" as="geometry" />
        </mxCell>
        <mxCell id="caSDgCl3acmiZdjkLDBD-43" style="edgeStyle=orthogonalEdgeStyle;rounded=0;orthogonalLoop=1;jettySize=auto;html=1;entryX=0.475;entryY=1.014;entryDx=0;entryDy=0;entryPerimeter=0;fontSize=16;" parent="1" source="caSDgCl3acmiZdjkLDBD-39" target="caSDgCl3acmiZdjkLDBD-36" edge="1">
          <mxGeometry relative="1" as="geometry" />
        </mxCell>
        <mxCell id="caSDgCl3acmiZdjkLDBD-44" style="edgeStyle=orthogonalEdgeStyle;rounded=0;orthogonalLoop=1;jettySize=auto;html=1;entryX=0.706;entryY=1.014;entryDx=0;entryDy=0;entryPerimeter=0;fontSize=16;" parent="1" source="caSDgCl3acmiZdjkLDBD-40" target="caSDgCl3acmiZdjkLDBD-36" edge="1">
          <mxGeometry relative="1" as="geometry" />
        </mxCell>
        <mxCell id="caSDgCl3acmiZdjkLDBD-49" style="edgeStyle=orthogonalEdgeStyle;rounded=0;orthogonalLoop=1;jettySize=auto;html=1;entryX=0.5;entryY=0;entryDx=0;entryDy=0;fontSize=16;" parent="1" source="caSDgCl3acmiZdjkLDBD-45" target="caSDgCl3acmiZdjkLDBD-33" edge="1">
          <mxGeometry relative="1" as="geometry" />
        </mxCell>
        <mxCell id="caSDgCl3acmiZdjkLDBD-45" value="ExternalButton" style="swimlane;fontStyle=1;align=center;verticalAlign=top;childLayout=stackLayout;horizontal=1;startSize=26;horizontalStack=0;resizeParent=1;resizeParentMax=0;resizeLast=0;collapsible=1;marginBottom=0;whiteSpace=wrap;html=1;fontSize=16;fillColor=none;" parent="1" vertex="1">
          <mxGeometry x="-590" y="170" width="240" height="138" as="geometry" />
        </mxCell>
        <mxCell id="caSDgCl3acmiZdjkLDBD-46" value="&lt;div&gt;+ ExternalButtonDispatch obj;&lt;br&gt;&lt;/div&gt;" style="text;strokeColor=none;fillColor=none;align=left;verticalAlign=top;spacingLeft=4;spacingRight=4;overflow=hidden;rotatable=0;points=[[0,0.5],[1,0.5]];portConstraint=eastwest;whiteSpace=wrap;html=1;fontSize=16;" parent="caSDgCl3acmiZdjkLDBD-45" vertex="1">
          <mxGeometry y="26" width="240" height="44" as="geometry" />
        </mxCell>
        <mxCell id="caSDgCl3acmiZdjkLDBD-47" value="" style="line;strokeWidth=1;fillColor=none;align=left;verticalAlign=middle;spacingTop=-1;spacingLeft=3;spacingRight=3;rotatable=0;labelPosition=right;points=[];portConstraint=eastwest;strokeColor=inherit;fontSize=16;" parent="caSDgCl3acmiZdjkLDBD-45" vertex="1">
          <mxGeometry y="70" width="240" height="8" as="geometry" />
        </mxCell>
        <mxCell id="caSDgCl3acmiZdjkLDBD-48" value="+ pressButton(int button);" style="text;strokeColor=none;fillColor=none;align=left;verticalAlign=top;spacingLeft=4;spacingRight=4;overflow=hidden;rotatable=0;points=[[0,0.5],[1,0.5]];portConstraint=eastwest;whiteSpace=wrap;html=1;fontSize=16;" parent="caSDgCl3acmiZdjkLDBD-45" vertex="1">
          <mxGeometry y="78" width="240" height="60" as="geometry" />
        </mxCell>
        <mxCell id="caSDgCl3acmiZdjkLDBD-54" style="edgeStyle=orthogonalEdgeStyle;rounded=0;orthogonalLoop=1;jettySize=auto;html=1;entryX=0.5;entryY=0;entryDx=0;entryDy=0;fontSize=16;" parent="1" source="caSDgCl3acmiZdjkLDBD-50" target="caSDgCl3acmiZdjkLDBD-45" edge="1">
          <mxGeometry relative="1" as="geometry" />
        </mxCell>
        <mxCell id="caSDgCl3acmiZdjkLDBD-50" value="Floor" style="swimlane;fontStyle=1;align=center;verticalAlign=top;childLayout=stackLayout;horizontal=1;startSize=26;horizontalStack=0;resizeParent=1;resizeParentMax=0;resizeLast=0;collapsible=1;marginBottom=0;whiteSpace=wrap;html=1;fontSize=16;fillColor=none;" parent="1" vertex="1">
          <mxGeometry x="-470" y="-60" width="240" height="140" as="geometry" />
        </mxCell>
        <mxCell id="caSDgCl3acmiZdjkLDBD-51" value="&lt;div&gt;+ int floor;&lt;/div&gt;&lt;div&gt;&lt;br&gt;&lt;/div&gt;&lt;div&gt;+ ExternalButton button;&lt;br&gt;&lt;/div&gt;" style="text;strokeColor=none;fillColor=none;align=left;verticalAlign=top;spacingLeft=4;spacingRight=4;overflow=hidden;rotatable=0;points=[[0,0.5],[1,0.5]];portConstraint=eastwest;whiteSpace=wrap;html=1;fontSize=16;" parent="caSDgCl3acmiZdjkLDBD-50" vertex="1">
          <mxGeometry y="26" width="240" height="74" as="geometry" />
        </mxCell>
        <mxCell id="caSDgCl3acmiZdjkLDBD-52" value="" style="line;strokeWidth=1;fillColor=none;align=left;verticalAlign=middle;spacingTop=-1;spacingLeft=3;spacingRight=3;rotatable=0;labelPosition=right;points=[];portConstraint=eastwest;strokeColor=inherit;fontSize=16;" parent="caSDgCl3acmiZdjkLDBD-50" vertex="1">
          <mxGeometry y="100" width="240" height="8" as="geometry" />
        </mxCell>
        <mxCell id="caSDgCl3acmiZdjkLDBD-53" value="+ pressButton(int button);" style="text;strokeColor=none;fillColor=none;align=left;verticalAlign=top;spacingLeft=4;spacingRight=4;overflow=hidden;rotatable=0;points=[[0,0.5],[1,0.5]];portConstraint=eastwest;whiteSpace=wrap;html=1;fontSize=16;" parent="caSDgCl3acmiZdjkLDBD-50" vertex="1">
          <mxGeometry y="108" width="240" height="32" as="geometry" />
        </mxCell>
        <mxCell id="caSDgCl3acmiZdjkLDBD-59" style="edgeStyle=orthogonalEdgeStyle;rounded=0;orthogonalLoop=1;jettySize=auto;html=1;entryX=0.5;entryY=0;entryDx=0;entryDy=0;fontSize=16;" parent="1" source="caSDgCl3acmiZdjkLDBD-55" target="caSDgCl3acmiZdjkLDBD-50" edge="1">
          <mxGeometry relative="1" as="geometry" />
        </mxCell>
        <mxCell id="caSDgCl3acmiZdjkLDBD-55" value="Building" style="swimlane;fontStyle=1;align=center;verticalAlign=top;childLayout=stackLayout;horizontal=1;startSize=26;horizontalStack=0;resizeParent=1;resizeParentMax=0;resizeLast=0;collapsible=1;marginBottom=0;whiteSpace=wrap;html=1;fontSize=16;fillColor=none;" parent="1" vertex="1">
          <mxGeometry x="-250" y="-250" width="240" height="100" as="geometry" />
        </mxCell>
        <mxCell id="caSDgCl3acmiZdjkLDBD-56" value="&lt;div&gt;+ List&amp;lt;Floor&amp;gt; floorList;&lt;br&gt;&lt;/div&gt;" style="text;strokeColor=none;fillColor=none;align=left;verticalAlign=top;spacingLeft=4;spacingRight=4;overflow=hidden;rotatable=0;points=[[0,0.5],[1,0.5]];portConstraint=eastwest;whiteSpace=wrap;html=1;fontSize=16;" parent="caSDgCl3acmiZdjkLDBD-55" vertex="1">
          <mxGeometry y="26" width="240" height="34" as="geometry" />
        </mxCell>
        <mxCell id="caSDgCl3acmiZdjkLDBD-57" value="" style="line;strokeWidth=1;fillColor=none;align=left;verticalAlign=middle;spacingTop=-1;spacingLeft=3;spacingRight=3;rotatable=0;labelPosition=right;points=[];portConstraint=eastwest;strokeColor=inherit;fontSize=16;" parent="caSDgCl3acmiZdjkLDBD-55" vertex="1">
          <mxGeometry y="60" width="240" height="8" as="geometry" />
        </mxCell>
        <mxCell id="caSDgCl3acmiZdjkLDBD-58" value="+ method" style="text;strokeColor=none;fillColor=none;align=left;verticalAlign=top;spacingLeft=4;spacingRight=4;overflow=hidden;rotatable=0;points=[[0,0.5],[1,0.5]];portConstraint=eastwest;whiteSpace=wrap;html=1;fontSize=16;" parent="caSDgCl3acmiZdjkLDBD-55" vertex="1">
          <mxGeometry y="68" width="240" height="32" as="geometry" />
        </mxCell>
        <mxCell id="caSDgCl3acmiZdjkLDBD-61" value="" style="fontStyle=1;align=center;verticalAlign=middle;childLayout=stackLayout;horizontal=1;horizontalStack=0;resizeParent=1;resizeParentMax=0;resizeLast=0;marginBottom=0;fontSize=16;" parent="1" vertex="1">
          <mxGeometry x="380" width="170" height="80" as="geometry" />
        </mxCell>
        <mxCell id="caSDgCl3acmiZdjkLDBD-62" value="&amp;lt;&amp;lt;enumeration&amp;gt;&amp;gt;" style="html=1;align=center;spacing=0;verticalAlign=middle;strokeColor=none;fillColor=none;whiteSpace=wrap;fontSize=16;" parent="caSDgCl3acmiZdjkLDBD-61" vertex="1">
          <mxGeometry width="170" height="20" as="geometry" />
        </mxCell>
        <mxCell id="caSDgCl3acmiZdjkLDBD-63" value="Direction" style="html=1;align=center;spacing=0;verticalAlign=middle;strokeColor=none;fillColor=none;whiteSpace=wrap;fontStyle=1;fontSize=16;" parent="caSDgCl3acmiZdjkLDBD-61" vertex="1">
          <mxGeometry y="20" width="170" height="14" as="geometry" />
        </mxCell>
        <mxCell id="caSDgCl3acmiZdjkLDBD-64" value="" style="line;strokeWidth=0.25;fillColor=none;align=left;verticalAlign=middle;spacingTop=-1;spacingLeft=3;spacingRight=3;rotatable=0;labelPosition=right;points=[];portConstraint=eastwest;fontSize=16;" parent="caSDgCl3acmiZdjkLDBD-61" vertex="1">
          <mxGeometry y="34" width="170" height="8" as="geometry" />
        </mxCell>
        <mxCell id="caSDgCl3acmiZdjkLDBD-65" value="UP" style="html=1;align=left;spacing=0;spacingLeft=8;verticalAlign=middle;strokeColor=none;fillColor=none;whiteSpace=wrap;fontSize=16;" parent="caSDgCl3acmiZdjkLDBD-61" vertex="1">
          <mxGeometry y="42" width="170" height="16" as="geometry" />
        </mxCell>
        <mxCell id="caSDgCl3acmiZdjkLDBD-66" value="DOWN" style="html=1;align=left;spacing=0;spacingLeft=8;verticalAlign=middle;strokeColor=none;fillColor=none;whiteSpace=wrap;fontSize=16;" parent="caSDgCl3acmiZdjkLDBD-61" vertex="1">
          <mxGeometry y="58" width="170" height="16" as="geometry" />
        </mxCell>
        <mxCell id="caSDgCl3acmiZdjkLDBD-67" value="" style="html=1;align=left;spacing=0;spacingLeft=8;verticalAlign=middle;strokeColor=none;fillColor=none;whiteSpace=wrap;fontSize=16;" parent="caSDgCl3acmiZdjkLDBD-61" vertex="1">
          <mxGeometry y="74" width="170" height="6" as="geometry" />
        </mxCell>
        <mxCell id="caSDgCl3acmiZdjkLDBD-68" style="edgeStyle=orthogonalEdgeStyle;rounded=0;orthogonalLoop=1;jettySize=auto;html=1;entryX=0.004;entryY=0.958;entryDx=0;entryDy=0;entryPerimeter=0;" parent="1" source="caSDgCl3acmiZdjkLDBD-34" target="caSDgCl3acmiZdjkLDBD-20" edge="1">
          <mxGeometry relative="1" as="geometry" />
        </mxCell>
        <mxCell id="P13pgBgxlLbMSnL-q3mE-2" value="" style="fontStyle=1;align=center;verticalAlign=middle;childLayout=stackLayout;horizontal=1;horizontalStack=0;resizeParent=1;resizeParentMax=0;resizeLast=0;marginBottom=0;fontSize=16;" vertex="1" parent="1">
          <mxGeometry x="590" y="-23" width="180" height="126" as="geometry" />
        </mxCell>
        <mxCell id="P13pgBgxlLbMSnL-q3mE-3" value="&amp;lt;&amp;lt;enumeration&amp;gt;&amp;gt;" style="html=1;align=center;spacing=0;verticalAlign=middle;strokeColor=none;fillColor=none;whiteSpace=wrap;fontSize=16;" vertex="1" parent="P13pgBgxlLbMSnL-q3mE-2">
          <mxGeometry width="180" height="20" as="geometry" />
        </mxCell>
        <mxCell id="P13pgBgxlLbMSnL-q3mE-4" value="Status" style="html=1;align=center;spacing=0;verticalAlign=middle;strokeColor=none;fillColor=none;whiteSpace=wrap;fontStyle=1;fontSize=16;" vertex="1" parent="P13pgBgxlLbMSnL-q3mE-2">
          <mxGeometry y="20" width="180" height="14" as="geometry" />
        </mxCell>
        <mxCell id="P13pgBgxlLbMSnL-q3mE-5" value="" style="line;strokeWidth=0.25;fillColor=none;align=left;verticalAlign=middle;spacingTop=-1;spacingLeft=3;spacingRight=3;rotatable=0;labelPosition=right;points=[];portConstraint=eastwest;fontSize=16;" vertex="1" parent="P13pgBgxlLbMSnL-q3mE-2">
          <mxGeometry y="34" width="180" height="8" as="geometry" />
        </mxCell>
        <mxCell id="P13pgBgxlLbMSnL-q3mE-6" value="IDLE" style="html=1;align=left;spacing=0;spacingLeft=8;verticalAlign=middle;strokeColor=none;fillColor=none;whiteSpace=wrap;fontSize=16;" vertex="1" parent="P13pgBgxlLbMSnL-q3mE-2">
          <mxGeometry y="42" width="180" height="16" as="geometry" />
        </mxCell>
        <mxCell id="P13pgBgxlLbMSnL-q3mE-7" value="MOVING" style="html=1;align=left;spacing=0;spacingLeft=8;verticalAlign=middle;strokeColor=none;fillColor=none;whiteSpace=wrap;fontSize=16;" vertex="1" parent="P13pgBgxlLbMSnL-q3mE-2">
          <mxGeometry y="58" width="180" height="16" as="geometry" />
        </mxCell>
        <mxCell id="P13pgBgxlLbMSnL-q3mE-10" value="UNDER_ MAINTENANCE" style="html=1;align=left;spacing=0;spacingLeft=8;verticalAlign=middle;strokeColor=none;fillColor=none;whiteSpace=wrap;fontSize=16;" vertex="1" parent="P13pgBgxlLbMSnL-q3mE-2">
          <mxGeometry y="74" width="180" height="46" as="geometry" />
        </mxCell>
        <mxCell id="P13pgBgxlLbMSnL-q3mE-8" value="" style="html=1;align=left;spacing=0;spacingLeft=8;verticalAlign=middle;strokeColor=none;fillColor=none;whiteSpace=wrap;fontSize=16;" vertex="1" parent="P13pgBgxlLbMSnL-q3mE-2">
          <mxGeometry y="120" width="180" height="6" as="geometry" />
        </mxCell>
      </root>
    </mxGraphModel>
  </diagram>
</mxfile>
